<svg width="180" height="204" viewBox="0 0 180 204" fill="none" xmlns="http://www.w3.org/2000/svg">
<path d="M94.7369 61.5789C94.7369 95.5881 73.5293 123.158 47.3684 123.158C-5.70197e-05 123.158 1.52588e-05 123.158 1.52588e-05 61.5789C1.52588e-05 27.5698 21.2076 0 47.3684 0C73.5293 0 94.7369 27.5698 94.7369 61.5789Z" fill="white"/>
<path d="M80.5263 62.0526C80.5263 85.859 65.681 105.158 47.3684 105.158C14.2105 105.158 14.2105 85.859 14.2105 62.0526C14.2105 38.2463 29.0558 18.9474 47.3684 18.9474C65.681 18.9474 80.5263 38.2463 80.5263 62.0526Z" fill="#C7C7C7"/>
<path d="M180 61.5789C180 123.158 180 123.158 132.632 123.158C106.471 123.158 85.2632 95.5881 85.2632 61.5789C85.2632 27.5698 106.471 0 132.632 0C158.792 0 180 27.5698 180 61.5789Z" fill="white"/>
<path d="M99.4737 62.0526C99.4737 85.859 114.319 105.158 132.632 105.158C165.79 105.158 165.789 85.859 165.789 62.0526C165.789 38.2463 150.944 18.9474 132.632 18.9474C114.319 18.9474 99.4737 38.2463 99.4737 62.0526Z" fill="#C7C7C7"/>
<ellipse cx="90" cy="120.789" rx="90" ry="82.8947" fill="white"/>
<ellipse cx="127.895" cy="97.1053" rx="9.47368" ry="7.10526" fill="black"/>
<ellipse cx="127.895" cy="97.1053" rx="9.47368" ry="7.10526" fill="black"/>
<ellipse cx="127.895" cy="97.1053" rx="9.47368" ry="7.10526" fill="black"/>
<ellipse cx="52.1053" cy="97.1053" rx="9.47368" ry="7.10526" fill="black"/>
<ellipse cx="52.1053" cy="97.1053" rx="9.47368" ry="7.10526" fill="black"/>
<ellipse cx="52.1053" cy="97.1053" rx="9.47368" ry="7.10526" fill="black"/>
<path d="M99.426 127.895C112.531 127.895 123.158 138.537 123.158 151.603C123.158 156.354 123.158 146.852 123.158 151.603C123.158 164.668 112.531 175.263 99.426 175.263C89.9428 175.263 85.3203 175.263 75.8371 175.263C62.7322 175.263 52.1053 164.668 52.1053 151.603C52.1053 156.354 52.1053 146.852 52.1053 151.603C52.1053 138.537 62.7322 127.895 75.8371 127.895C85.3203 127.895 89.9428 127.895 99.426 127.895Z" fill="black"/>
</svg>
