<?xml version="1.0" encoding="UTF-8" standalone="no"?>
<!DOCTYPE svg PUBLIC "-//W3C//DTD SVG 1.1//EN" "http://www.w3.org/Graphics/SVG/1.1/DTD/svg11.dtd">
<svg version="1.1" xmlns="http://www.w3.org/2000/svg" xmlns:xlink="http://www.w3.org/1999/xlink" preserveAspectRatio="xMidYMid meet" viewBox="-1.0005540897098086 -1.0006643496944463 373.99999999999994 373.99999999999994" width="370" height="370"><defs><path d="M370 82.15C370 139.72 370 230.28 370 287.85C370 333.22 333.22 370 287.85 370C230.28 370 139.72 370 82.15 370C36.78 370 0 333.22 0 287.85C0 230.28 0 139.72 0 82.15C0 36.78 36.78 0 82.15 0C139.72 0 230.28 0 287.85 0C333.22 0 370 36.78 370 82.15Z" id="l3IZHoY1fF"></path><path d="M255.62 281.63C255.62 304.26 237.14 322.6 214.34 322.6C191.34 322.6 163.6 322.6 140.59 322.6C117.79 322.6 99.31 304.26 99.31 281.63C99.31 261.23 99.31 210.24 99.31 128.67C130.58 128.67 239.99 128.67 255.62 128.67C255.62 210.24 255.62 261.23 255.62 281.63Z" id="fisxfv19c"></path><path d="M255.62 281.63C255.62 304.26 237.14 322.6 214.34 322.6C191.34 322.6 163.6 322.6 140.59 322.6C117.79 322.6 99.31 304.26 99.31 281.63C99.31 261.23 99.31 210.24 99.31 128.67C130.58 128.67 239.99 128.67 255.62 128.67C255.62 210.24 255.62 261.23 255.62 281.63Z" id="g1yXCONUc"></path><path d="M255.32 286.63L255.09 288.27L254.78 289.88L254.42 291.47L254.01 293.04L253.52 294.57L252.98 296.08L252.38 297.57L251.72 299.02L251.02 300.46L250.25 301.85L249.44 303.21L248.57 304.53L247.66 305.82L246.69 307.08L245.69 308.29L244.63 309.47L243.53 310.6L242.39 311.68L241.21 312.73L239.98 313.74L238.72 314.7L237.42 315.6L236.08 316.45L234.72 317.27L233.31 318.02L231.87 318.73L230.41 319.38L228.92 319.97L227.39 320.51L225.83 320.99L224.27 321.41L222.67 321.76L221.04 322.06L219.39 322.3L217.73 322.46L216.05 322.56L214.34 322.6L177.47 322.6L177.47 128.67L255.62 128.67L255.62 281.63L255.59 283.32L255.49 284.98L255.32 286.63Z" id="a261yhFPHE"></path><path d="M255.32 286.63L255.09 288.27L254.78 289.88L254.42 291.47L254.01 293.04L253.52 294.57L252.98 296.08L252.38 297.57L251.72 299.02L251.02 300.46L250.25 301.85L249.44 303.21L248.57 304.53L247.66 305.82L246.69 307.08L245.69 308.29L244.63 309.47L243.53 310.6L242.39 311.68L241.21 312.73L239.98 313.74L238.72 314.7L237.42 315.6L236.08 316.45L234.72 317.27L233.31 318.02L231.87 318.73L230.41 319.38L228.92 319.97L227.39 320.51L225.83 320.99L224.27 321.41L222.67 321.76L221.04 322.06L219.39 322.3L217.73 322.46L216.05 322.56L214.34 322.6L177.47 322.6L177.47 128.67L255.62 128.67L255.62 281.63L255.59 283.32L255.49 284.98L255.32 286.63Z" id="cbjXCK4y1"></path><path d="M239.99 274.56C239.99 292.67 225.2 307.34 206.97 307.34C188.57 307.34 166.37 307.34 147.97 307.34C129.73 307.34 114.94 292.67 114.94 274.56C114.94 258.26 114.94 217.46 114.94 152.2C139.95 152.2 227.49 152.2 239.99 152.2C239.99 217.46 239.99 258.26 239.99 274.56Z" id="aNGMVYkI"></path><path d="M239.99 274.56C239.99 292.67 225.2 307.34 206.97 307.34C188.57 307.34 166.37 307.34 147.97 307.34C129.73 307.34 114.94 292.67 114.94 274.56C114.94 258.26 114.94 217.46 114.94 152.2C139.95 152.2 227.49 152.2 239.99 152.2C239.99 217.46 239.99 258.26 239.99 274.56Z" id="b2yj4Uy9S"></path><path d="M239.75 278.57L239.56 279.88L239.32 281.17L239.03 282.44L238.69 283.69L238.31 284.92L237.87 286.13L237.39 287.33L236.87 288.49L236.3 289.63L235.69 290.74L235.04 291.84L234.35 292.89L233.62 293.92L232.85 294.93L232.04 295.9L231.2 296.84L230.32 297.75L229.41 298.62L228.47 299.45L227.48 300.26L226.47 301.02L225.43 301.74L224.36 302.43L223.26 303.08L222.14 303.69L220.99 304.25L219.82 304.77L218.62 305.24L217.4 305.67L216.16 306.05L214.9 306.4L213.62 306.68L212.32 306.92L211.01 307.1L209.67 307.23L208.33 307.32L206.97 307.34L177.47 307.34L177.47 152.2L239.99 152.2L239.99 274.56L239.97 275.91L239.88 277.25L239.75 278.57Z" id="a7UyLN7dgM"></path><path d="M239.75 278.57L239.56 279.88L239.32 281.17L239.03 282.44L238.69 283.69L238.31 284.92L237.87 286.13L237.39 287.33L236.87 288.49L236.3 289.63L235.69 290.74L235.04 291.84L234.35 292.89L233.62 293.92L232.85 294.93L232.04 295.9L231.2 296.84L230.32 297.75L229.41 298.62L228.47 299.45L227.48 300.26L226.47 301.02L225.43 301.74L224.36 302.43L223.26 303.08L222.14 303.69L220.99 304.25L219.82 304.77L218.62 305.24L217.4 305.67L216.16 306.05L214.9 306.4L213.62 306.68L212.32 306.92L211.01 307.1L209.67 307.23L208.33 307.32L206.97 307.34L177.47 307.34L177.47 152.2L239.99 152.2L239.99 274.56L239.97 275.91L239.88 277.25L239.75 278.57Z" id="a8jQQWVX8"></path><path d="M161.98 48.01L163.79 48.34L165.6 48.76L167.36 49.24L169.1 49.78L170.81 50.39L172.5 51.07L174.13 51.81L175.75 52.62L177.32 53.48L178.86 54.4L180.36 55.38L181.82 56.42L183.24 57.51L184.61 58.66L185.94 59.85L187.22 61.09L188.45 62.39L189.64 63.73L190.78 65.11L191.85 66.54L192.89 68.01L193.85 69.52L194.06 69.88L195.65 69.52L197.31 69.21L199 68.96L200.71 68.8L202.45 68.68L204.21 68.65L205.95 68.68L207.68 68.8L209.39 68.96L211.09 69.21L212.75 69.52L214.4 69.9L216.02 70.34L217.62 70.83L219.18 71.4L220.72 72.02L222.24 72.7L223.71 73.43L225.16 74.23L226.57 75.08L227.94 75.97L229.27 76.92L230.58 77.92L231.84 78.97L233.05 80.06L234.23 81.21L235.37 82.39L236.44 83.62L237.48 84.89L238.47 86.2L239.42 87.55L240.31 88.93L241.15 90.36L241.93 91.82L242.67 93.31L243.34 94.82L243.77 95.91L244.28 95.73L245.44 95.36L246.62 95.04L247.82 94.77L249.03 94.55L250.26 94.37L251.51 94.24L252.77 94.17L254.04 94.14L255.31 94.17L256.57 94.24L257.82 94.37L259.04 94.55L260.27 94.77L261.46 95.04L262.64 95.36L263.8 95.73L264.93 96.14L266.06 96.59L267.16 97.09L268.23 97.62L269.29 98.19L270.3 98.81L271.31 99.47L272.28 100.15L273.22 100.89L274.13 101.65L275.02 102.45L275.88 103.28L276.7 104.14L277.49 105.03L278.24 105.95L278.97 106.9L279.65 107.88L280.3 108.89L280.91 109.93L281.49 110.98L282.01 112.07L282.5 113.18L282.95 114.31L283.35 115.45L283.72 116.62L284.03 117.82L284.31 119.02L284.53 120.25L284.71 121.48L284.83 122.74L284.9 124.02L284.93 125.31L284.9 126.58L284.83 127.86L284.71 129.11L284.53 130.35L284.31 131.58L284.03 132.79L283.72 133.98L283.35 135.15L282.95 136.29L282.5 137.43L282.01 138.53L281.49 139.62L280.91 140.68L280.3 141.71L279.65 142.72L278.97 143.7L278.24 144.65L277.49 145.57L276.7 146.47L275.88 147.33L275.02 148.17L274.13 148.95L273.22 149.72L272.28 150.44L271.31 151.14L270.3 151.79L269.29 152.41L268.23 152.98L267.16 153.51L266.06 154.01L264.93 154.46L263.8 154.87L262.64 155.24L261.46 155.56L260.27 155.83L259.04 156.05L257.82 156.24L256.57 156.36L255.31 156.43L254.04 156.46L252.77 156.43L251.51 156.36L250.26 156.24L249.03 156.05L247.82 155.83L246.62 155.56L245.44 155.24L244.28 154.87L243.14 154.46L242.02 154.01L240.92 153.51L239.85 152.98L238.8 152.41L237.77 151.79L236.77 151.14L235.8 150.44L234.85 149.72L233.94 148.95L233.06 148.17L232.2 147.33L231.38 146.47L230.58 145.57L230.33 145.26L229.27 146.07L227.94 147.02L226.57 147.93L225.16 148.77L223.71 149.56L222.24 150.29L220.72 150.97L219.18 151.6L217.62 152.16L216.02 152.66L214.4 153.1L212.75 153.47L211.09 153.78L209.39 154.03L207.68 154.2L205.95 154.31L204.21 154.35L202.45 154.31L200.71 154.2L199 154.03L197.31 153.78L195.65 153.47L194 153.1L192.37 152.66L190.78 152.16L189.21 151.6L187.68 150.97L186.16 150.29L184.69 149.56L183.24 148.77L181.83 147.93L180.46 147.02L179.77 146.53L179.97 147.19L180.29 148.37L180.55 149.59L180.78 150.81L180.95 152.05L181.09 153.31L181.15 154.58L181.18 155.86L181.15 157.15L181.09 158.42L180.95 159.67L180.78 160.92L180.55 162.15L180.29 163.35L179.97 164.54L179.61 165.71L179.2 166.86L178.76 167.98L178.27 169.09L177.73 170.18L177.16 171.23L176.55 172.27L175.91 173.28L175.23 174.26L174.49 175.21L173.75 176.14L172.96 177.03L172.13 177.89L171.27 178.72L170.39 179.52L169.48 180.28L168.53 181.01L167.56 181.7L166.56 182.35L165.53 182.97L164.49 183.54L163.4 184.08L162.31 184.58L161.19 185.03L160.05 185.44L158.89 185.8L157.71 186.12L156.51 186.39L155.3 186.61L154.07 186.79L152.82 186.92L151.56 187L150.29 187.03L149.01 187L147.76 186.92L146.52 186.79L145.28 186.61L144.07 186.39L142.88 186.12L141.69 185.8L140.53 185.44L139.39 185.03L138.27 184.58L137.17 184.08L136.1 183.54L135.05 182.97L134.03 182.35L133.03 181.7L132.05 181.01L131.11 180.28L130.19 179.52L129.31 178.72L128.46 177.89L127.63 177.03L126.84 176.14L126.09 175.21L125.37 174.26L124.68 173.28L124.03 172.27L123.42 171.23L122.85 170.18L122.32 169.09L121.83 167.98L121.38 166.86L120.98 165.71L120.61 164.54L120.3 163.35L120.06 162.25L119.36 162.46L117.89 162.86L116.39 163.2L114.88 163.49L113.34 163.71L111.78 163.87L110.21 163.96L108.62 163.99L107.03 163.96L105.46 163.87L103.9 163.71L102.36 163.49L100.84 163.2L99.34 162.86L97.87 162.46L96.42 162.01L95 161.5L93.6 160.93L92.22 160.31L90.88 159.64L89.56 158.93L88.29 158.16L87.03 157.34L85.82 156.48L84.64 155.56L83.49 154.62L82.39 153.62L81.32 152.58L80.29 151.51L79.31 150.39L78.35 149.24L77.46 148.04L76.6 146.82L75.79 145.56L75.03 144.26L74.31 142.94L73.65 141.59L73.05 140.2L72.48 138.79L71.98 137.35L71.52 135.89L71.13 134.4L70.79 132.89L70.51 131.35L70.29 129.8L70.14 128.23L70.04 126.65L70 125.04L70.04 123.45L70.14 121.85L70.29 120.28L70.51 118.73L70.79 117.19L71.13 115.69L71.52 114.2L71.98 112.74L72.48 111.31L73.05 109.89L73.65 108.5L74.31 107.15L75.03 105.82L75.79 104.53L76.6 103.28L77.46 102.05L78.35 100.86L79.31 99.69L80.29 98.58L81.32 97.5L82.39 96.47L83.49 95.47L84.64 94.52L85.82 93.61L87.03 92.75L88.29 91.94L89.56 91.17L90.88 90.44L92.22 89.77L93.6 89.15L95 88.59L96.42 88.08L97.87 87.62L99.34 87.22L100.84 86.88L102.36 86.61L103.9 86.38L105.46 86.22L107.03 86.12L108.62 86.09L108.82 86.09L109.07 84.73L109.48 82.91L109.94 81.12L110.49 79.38L111.1 77.64L111.77 75.95L112.5 74.29L113.3 72.66L114.16 71.07L115.07 69.52L116.04 68.01L117.08 66.54L118.16 65.11L119.29 63.73L120.47 62.39L121.7 61.09L122.98 59.85L124.31 58.66L125.69 57.51L127.1 56.42L128.56 55.38L130.06 54.4L131.6 53.48L133.18 52.62L134.78 51.81L136.44 51.07L138.12 50.39L139.83 49.78L141.57 49.24L143.34 48.76L145.13 48.34L146.96 48.01L148.8 47.74L150.67 47.56L152.56 47.44L154.47 47.4L156.37 47.44L158.27 47.56L160.13 47.74L161.98 48.01Z" id="b3aFt5NyBr"></path><path d="M161.98 48.01L163.79 48.34L165.6 48.76L167.36 49.24L169.1 49.78L170.81 50.39L172.5 51.07L174.13 51.81L175.75 52.62L177.32 53.48L178.86 54.4L180.36 55.38L181.82 56.42L183.24 57.51L184.61 58.66L185.94 59.85L187.22 61.09L188.45 62.39L189.64 63.73L190.78 65.11L191.85 66.54L192.89 68.01L193.85 69.52L194.06 69.88L195.65 69.52L197.31 69.21L199 68.96L200.71 68.8L202.45 68.68L204.21 68.65L205.95 68.68L207.68 68.8L209.39 68.96L211.09 69.21L212.75 69.52L214.4 69.9L216.02 70.34L217.62 70.83L219.18 71.4L220.72 72.02L222.24 72.7L223.71 73.43L225.16 74.23L226.57 75.08L227.94 75.97L229.27 76.92L230.58 77.92L231.84 78.97L233.05 80.06L234.23 81.21L235.37 82.39L236.44 83.62L237.48 84.89L238.47 86.2L239.42 87.55L240.31 88.93L241.15 90.36L241.93 91.82L242.67 93.31L243.34 94.82L243.77 95.91L244.28 95.73L245.44 95.36L246.62 95.04L247.82 94.77L249.03 94.55L250.26 94.37L251.51 94.24L252.77 94.17L254.04 94.14L255.31 94.17L256.57 94.24L257.82 94.37L259.04 94.55L260.27 94.77L261.46 95.04L262.64 95.36L263.8 95.73L264.93 96.14L266.06 96.59L267.16 97.09L268.23 97.62L269.29 98.19L270.3 98.81L271.31 99.47L272.28 100.15L273.22 100.89L274.13 101.65L275.02 102.45L275.88 103.28L276.7 104.14L277.49 105.03L278.24 105.95L278.97 106.9L279.65 107.88L280.3 108.89L280.91 109.93L281.49 110.98L282.01 112.07L282.5 113.18L282.95 114.31L283.35 115.45L283.72 116.62L284.03 117.82L284.31 119.02L284.53 120.25L284.71 121.48L284.83 122.74L284.9 124.02L284.93 125.31L284.9 126.58L284.83 127.86L284.71 129.11L284.53 130.35L284.31 131.58L284.03 132.79L283.72 133.98L283.35 135.15L282.95 136.29L282.5 137.43L282.01 138.53L281.49 139.62L280.91 140.68L280.3 141.71L279.65 142.72L278.97 143.7L278.24 144.65L277.49 145.57L276.7 146.47L275.88 147.33L275.02 148.17L274.13 148.95L273.22 149.72L272.28 150.44L271.31 151.14L270.3 151.79L269.29 152.41L268.23 152.98L267.16 153.51L266.06 154.01L264.93 154.46L263.8 154.87L262.64 155.24L261.46 155.56L260.27 155.83L259.04 156.05L257.82 156.24L256.57 156.36L255.31 156.43L254.04 156.46L252.77 156.43L251.51 156.36L250.26 156.24L249.03 156.05L247.82 155.83L246.62 155.56L245.44 155.24L244.28 154.87L243.14 154.46L242.02 154.01L240.92 153.51L239.85 152.98L238.8 152.41L237.77 151.79L236.77 151.14L235.8 150.44L234.85 149.72L233.94 148.95L233.06 148.17L232.2 147.33L231.38 146.47L230.58 145.57L230.33 145.26L229.27 146.07L227.94 147.02L226.57 147.93L225.16 148.77L223.71 149.56L222.24 150.29L220.72 150.97L219.18 151.6L217.62 152.16L216.02 152.66L214.4 153.1L212.75 153.47L211.09 153.78L209.39 154.03L207.68 154.2L205.95 154.31L204.21 154.35L202.45 154.31L200.71 154.2L199 154.03L197.31 153.78L195.65 153.47L194 153.1L192.37 152.66L190.78 152.16L189.21 151.6L187.68 150.97L186.16 150.29L184.69 149.56L183.24 148.77L181.83 147.93L180.46 147.02L179.77 146.53L179.97 147.19L180.29 148.37L180.55 149.59L180.78 150.81L180.95 152.05L181.09 153.31L181.15 154.58L181.18 155.86L181.15 157.15L181.09 158.42L180.95 159.67L180.78 160.92L180.55 162.15L180.29 163.35L179.97 164.54L179.61 165.71L179.2 166.86L178.76 167.98L178.27 169.09L177.73 170.18L177.16 171.23L176.55 172.27L175.91 173.28L175.23 174.26L174.49 175.21L173.75 176.14L172.96 177.03L172.13 177.89L171.27 178.72L170.39 179.52L169.48 180.28L168.53 181.01L167.56 181.7L166.56 182.35L165.53 182.97L164.49 183.54L163.4 184.08L162.31 184.58L161.19 185.03L160.05 185.44L158.89 185.8L157.71 186.12L156.51 186.39L155.3 186.61L154.07 186.79L152.82 186.92L151.56 187L150.29 187.03L149.01 187L147.76 186.92L146.52 186.79L145.28 186.61L144.07 186.39L142.88 186.12L141.69 185.8L140.53 185.44L139.39 185.03L138.27 184.58L137.17 184.08L136.1 183.54L135.05 182.97L134.03 182.35L133.03 181.7L132.05 181.01L131.11 180.28L130.19 179.52L129.31 178.72L128.46 177.89L127.63 177.03L126.84 176.14L126.09 175.21L125.37 174.26L124.68 173.28L124.03 172.27L123.42 171.23L122.85 170.18L122.32 169.09L121.83 167.98L121.38 166.86L120.98 165.71L120.61 164.54L120.3 163.35L120.06 162.25L119.36 162.46L117.89 162.86L116.39 163.2L114.88 163.49L113.34 163.71L111.78 163.87L110.21 163.96L108.62 163.99L107.03 163.96L105.46 163.87L103.9 163.71L102.36 163.49L100.84 163.2L99.34 162.86L97.87 162.46L96.42 162.01L95 161.5L93.6 160.93L92.22 160.31L90.88 159.64L89.56 158.93L88.29 158.16L87.03 157.34L85.82 156.48L84.64 155.56L83.49 154.62L82.39 153.62L81.32 152.58L80.29 151.51L79.31 150.39L78.35 149.24L77.46 148.04L76.6 146.82L75.79 145.56L75.03 144.26L74.31 142.94L73.65 141.59L73.05 140.2L72.48 138.79L71.98 137.35L71.52 135.89L71.13 134.4L70.79 132.89L70.51 131.35L70.29 129.8L70.14 128.23L70.04 126.65L70 125.04L70.04 123.45L70.14 121.85L70.29 120.28L70.51 118.73L70.79 117.19L71.13 115.69L71.52 114.2L71.98 112.74L72.48 111.31L73.05 109.89L73.65 108.5L74.31 107.15L75.03 105.82L75.79 104.53L76.6 103.28L77.46 102.05L78.35 100.86L79.31 99.69L80.29 98.58L81.32 97.5L82.39 96.47L83.49 95.47L84.64 94.52L85.82 93.61L87.03 92.75L88.29 91.94L89.56 91.17L90.88 90.44L92.22 89.77L93.6 89.15L95 88.59L96.42 88.08L97.87 87.62L99.34 87.22L100.84 86.88L102.36 86.61L103.9 86.38L105.46 86.22L107.03 86.12L108.62 86.09L108.82 86.09L109.07 84.73L109.48 82.91L109.94 81.12L110.49 79.38L111.1 77.64L111.77 75.95L112.5 74.29L113.3 72.66L114.16 71.07L115.07 69.52L116.04 68.01L117.08 66.54L118.16 65.11L119.29 63.73L120.47 62.39L121.7 61.09L122.98 59.85L124.31 58.66L125.69 57.51L127.1 56.42L128.56 55.38L130.06 54.4L131.6 53.48L133.18 52.62L134.78 51.81L136.44 51.07L138.12 50.39L139.83 49.78L141.57 49.24L143.34 48.76L145.13 48.34L146.96 48.01L148.8 47.74L150.67 47.56L152.56 47.44L154.47 47.4L156.37 47.44L158.27 47.56L160.13 47.74L161.98 48.01Z" id="m3fgvz2eW4"></path><path d="M282.66 171.08L283.42 171.16L284.18 171.27L284.92 171.41L285.65 171.57L286.37 171.76L287.08 171.99L287.78 172.23L288.46 172.51L289.13 172.81L289.8 173.13L290.44 173.48L291.06 173.85L291.67 174.25L292.27 174.66L292.84 175.11L293.41 175.57L293.94 176.05L294.47 176.55L294.97 177.08L295.45 177.62L295.92 178.18L296.36 178.76L296.78 179.34L297.17 179.96L297.54 180.59L297.9 181.23L298.22 181.89L298.52 182.56L298.79 183.24L299.04 183.94L299.26 184.64L299.46 185.37L299.61 186.1L299.76 186.85L299.86 187.59L299.94 188.36L299.98 189.13L300 189.91L300 245.69L299.98 246.47L299.94 247.25L299.86 248.01L299.76 248.76L299.61 249.5L299.46 250.23L299.26 250.96L299.04 251.67L298.79 252.37L298.52 253.05L298.22 253.72L297.9 254.37L297.54 255.02L297.17 255.65L296.78 256.26L296.36 256.85L295.92 257.43L295.45 257.98L294.97 258.53L294.47 259.05L293.94 259.55L293.41 260.03L292.84 260.49L292.27 260.94L291.67 261.35L291.06 261.75L290.44 262.12L289.8 262.48L289.13 262.8L288.46 263.1L287.78 263.37L287.08 263.62L286.37 263.84L285.65 264.03L284.92 264.2L284.18 264.33L283.42 264.45L282.66 264.52L281.89 264.57L281.11 264.58L254.75 264.58L254.75 249.01L272.32 249.01L272.84 249L273.35 248.97L273.85 248.92L274.36 248.85L274.86 248.76L275.35 248.65L275.82 248.52L276.3 248.37L276.77 248.2L277.23 248.02L277.67 247.82L278.11 247.61L278.54 247.38L278.95 247.13L279.36 246.86L279.76 246.58L280.14 246.29L280.52 245.98L280.88 245.66L281.23 245.32L281.56 244.98L281.89 244.62L282.2 244.24L282.49 243.85L282.77 243.45L283.03 243.05L283.28 242.63L283.51 242.2L283.73 241.77L283.93 241.32L284.11 240.86L284.28 240.39L284.43 239.92L284.56 239.44L284.66 238.95L284.75 238.46L284.83 237.95L284.88 237.45L284.91 236.93L284.92 236.41L284.92 199.19L284.91 198.67L284.88 198.16L284.83 197.65L284.75 197.15L284.66 196.65L284.56 196.17L284.43 195.68L284.28 195.21L284.11 194.74L283.93 194.29L283.73 193.84L283.51 193.4L283.28 192.97L283.03 192.55L282.77 192.15L282.49 191.75L282.2 191.36L281.89 190.99L281.56 190.63L281.23 190.28L280.88 189.95L280.52 189.62L280.14 189.31L279.76 189.02L279.36 188.74L278.95 188.48L278.54 188.23L278.11 187.99L277.67 187.78L277.23 187.58L276.77 187.4L276.3 187.23L275.82 187.09L275.35 186.95L274.86 186.85L274.36 186.76L273.85 186.68L273.35 186.63L272.84 186.6L272.32 186.59L254.75 186.59L254.75 171.02L281.11 171.02L281.89 171.04L282.66 171.08Z" id="bgFxsnFL1"></path></defs><g><g><use xlink:href="#l3IZHoY1fF" opacity="1" fill="#333f50" fill-opacity="1"></use><g><use xlink:href="#l3IZHoY1fF" opacity="1" fill-opacity="0" stroke="#000000" stroke-width="1" stroke-opacity="0"></use></g></g><g><g><use xlink:href="#fisxfv19c" opacity="1" fill="#d4be91" fill-opacity="1"></use></g><g><use xlink:href="#g1yXCONUc" opacity="1" fill="#000000" fill-opacity="0"></use></g><g><use xlink:href="#a261yhFPHE" opacity="1" fill="#d8c49c" fill-opacity="1"></use></g><g><use xlink:href="#cbjXCK4y1" opacity="1" fill="#000000" fill-opacity="0"></use></g><g><use xlink:href="#aNGMVYkI" opacity="1" fill="#ef9d00" fill-opacity="1"></use></g><g><use xlink:href="#b2yj4Uy9S" opacity="1" fill="#000000" fill-opacity="0"></use></g><g><use xlink:href="#a7UyLN7dgM" opacity="1" fill="#ffa800" fill-opacity="1"></use></g><g><use xlink:href="#a8jQQWVX8" opacity="1" fill="#000000" fill-opacity="0"></use></g><g><use xlink:href="#b3aFt5NyBr" opacity="1" fill="#ffffff" fill-opacity="1"></use></g><g><use xlink:href="#m3fgvz2eW4" opacity="1" fill="#000000" fill-opacity="0"></use></g><g><use xlink:href="#bgFxsnFL1" opacity="1" fill="#d8c49c" fill-opacity="1"></use></g></g></g></svg>