<svg width="640" height="640" viewBox="0 0 640 640" fill="none" xmlns="http://www.w3.org/2000/svg">
<g clip-path="url(#clip0_3_2)">
<path d="M0 0H640V640H0V0Z" fill="url(#paint0_radial_3_2)" style="mix-blend-mode:multiply"/>
<path d="M460 408.61C460 485.87 397.27 548.61 320 548.61C242.73 548.61 180 485.87 180 408.61C180 331.34 242.73 268.61 320 268.61C397.27 268.61 460 331.34 460 408.61Z" fill="#E3E3E3"/>
<path d="M609.4 640C626.3 640 640 626.3 640 609.4C640 568.23 640 475.33 640 434.16C640 414.05 635.21 394.23 626.04 376.34C623.25 370.89 628.83 381.78 626.04 376.34L599.8 321.08C590.38 299.56 574.37 263.02 564.95 241.49C560.13 230.48 544.61 230.2 539.39 241.03C528.98 262.65 511.02 299.93 500.61 321.54C492.08 339.25 477.12 353.04 458.77 360.1C424.88 373.15 351.75 401.3 317.86 414.35C299.32 421.49 278.97 422.45 259.84 417.1C211.28 403.5 95.06 370.96 46.49 357.36C30.65 352.92 14.4 363.01 11.35 379.17C9.08 391.18 7.95 397.14 5.68 409.14C1.9 429.14 0 449.45 0 469.81C0 503.84 0 575.36 0 609.4C0 626.3 13.7 640 30.6 640C152.48 640 487.52 640 609.4 640Z" fill="#A1AECD"/>
<path d="M-1.27002 464.27L-1.92475e-05 640H640C640 565.12 640 518.33 640 499.61C640 479.35 636.6 459.24 629.94 440.11C626.37 429.85 625.71 427.97 622.14 417.71L599.8 360.78C590.38 339.26 602.26 366.39 599.8 360.78C580.84 317.47 520.17 315.39 498.28 357.3C495.29 363.01 508.56 337.61 497.53 358.72C489.06 374.95 471.21 384 453.11 381.25C431.77 378.01 405.79 374.07 386.4 371.12C360.79 367.23 334.68 373.66 313.79 388.99C298.2 400.44 277.68 415.51 260.5 428.13C244.64 439.78 224.99 445.09 205.41 443.02C190.9 441.48 177.81 440.1 163.3 438.56C143.31 436.45 124.12 429.55 107.36 418.45C91.24 407.77 68.37 392.63 52.24 381.95C39.63 373.59 22.53 379.94 18.42 394.5C15.8 403.8 9.22998 427.06 -1.27002 464.27Z" fill="#8896B8"/>
<path d="M220.26 424.16C230.3 424.16 238.44 432.3 238.44 442.34C238.44 446.42 238.44 440.51 238.44 444.59C238.44 454.63 230.3 462.77 220.26 462.77C209.64 462.77 195.95 462.77 185.33 462.77C175.29 462.77 167.15 454.63 167.15 444.59C167.15 440.51 167.15 446.42 167.15 442.34C167.15 432.3 175.29 424.16 185.33 424.16C195.95 424.16 209.64 424.16 220.26 424.16Z" fill="white"/>
<path d="M212.39 393.02C217.69 393.02 221.98 397.32 221.98 402.62C221.98 406.04 221.98 406.73 221.98 410.16C221.98 415.46 217.69 419.75 212.39 419.75C210.47 419.75 214.31 419.75 212.39 419.75C207.09 419.75 202.79 415.46 202.79 410.16C202.79 406.73 202.79 406.04 202.79 402.62C202.79 397.32 207.09 393.02 212.39 393.02C210.47 393.02 214.31 393.02 212.39 393.02Z" fill="white"/>
<path d="M232.81 393.02C238.1 393.02 242.4 397.32 242.4 402.62C242.4 406.04 242.4 406.73 242.4 410.16C242.4 415.46 238.1 419.75 232.81 419.75C230.89 419.75 234.72 419.75 232.81 419.75C227.51 419.75 223.21 415.46 223.21 410.16C223.21 406.73 223.21 406.04 223.21 402.62C223.21 397.32 227.51 393.02 232.81 393.02C230.89 393.02 234.72 393.02 232.81 393.02Z" fill="white"/>
<path d="M212.25 397.15C216.37 397.15 219.71 400.49 219.71 404.61C219.71 407.64 219.71 409.27 219.71 412.3C219.71 416.42 216.37 419.75 212.25 419.75C210.76 419.75 213.74 419.75 212.25 419.75C208.13 419.75 204.79 416.42 204.79 412.3C204.79 409.27 204.79 407.64 204.79 404.61C204.79 400.49 208.13 397.15 212.25 397.15C210.76 397.15 213.74 397.15 212.25 397.15Z" fill="#C7C7C7"/>
<path d="M232.25 397.15C236.37 397.15 239.71 400.49 239.71 404.61C239.71 407.64 239.71 409.27 239.71 412.3C239.71 416.42 236.37 419.75 232.25 419.75C230.76 419.75 233.74 419.75 232.25 419.75C228.13 419.75 224.79 416.42 224.79 412.3C224.79 409.27 224.79 407.64 224.79 404.61C224.79 400.49 228.13 397.15 232.25 397.15C230.76 397.15 233.74 397.15 232.25 397.15Z" fill="#C7C7C7"/>
<path d="M242.4 418.71C242.4 428.55 233.53 436.54 222.6 436.54C211.67 436.54 202.79 428.55 202.79 418.71C202.79 408.88 211.67 400.89 222.6 400.89C233.53 400.89 242.4 408.88 242.4 418.71Z" fill="white"/>
<path d="M225.07 419.75C227.82 419.75 230.05 421.99 230.05 424.74C230.05 425.74 230.05 423.74 230.05 424.74C230.05 427.49 227.82 429.72 225.07 429.72C223.08 429.72 222.11 429.72 220.12 429.72C217.37 429.72 215.14 427.49 215.14 424.74C215.14 423.74 215.14 425.74 215.14 424.74C215.14 421.99 217.37 419.75 220.12 419.75C222.11 419.75 223.08 419.75 225.07 419.75Z" fill="black"/>
<path d="M217.48 413.93C217.48 414.74 216.58 415.4 215.48 415.4C214.37 415.4 213.48 414.74 213.48 413.93C213.48 413.12 214.37 412.47 215.48 412.47C216.58 412.47 217.48 413.12 217.48 413.93Z" fill="black"/>
<path d="M232.48 413.94C232.48 414.76 231.58 415.42 230.48 415.42C229.37 415.42 228.48 414.76 228.48 413.94C228.48 413.13 229.37 412.47 230.48 412.47C231.58 412.47 232.48 413.13 232.48 413.94Z" fill="black"/>
<path d="M602.59 413.3C610.47 424.81 622.94 444.3 640 471.79V640H-1.29938e-05C-0.680013 578.66 -1.10001 540.33 -1.27001 524.99C-1.52001 501.83 12.99 481.07 34.83 473.35C42.61 470.6 35.58 473.09 44.89 469.8C63.67 463.16 84.04 462.46 103.22 467.79C104.5 468.15 89.25 463.91 93.13 464.99C103.81 467.96 115.17 467.32 125.46 463.18C144.17 455.66 174.42 443.49 190.62 436.97C209 429.57 229.35 428.64 248.32 434.32C279.49 443.66 343.68 462.88 374.85 472.21C392.98 477.64 412.64 472.97 426.39 459.97C443.73 443.58 469.96 418.78 486.41 403.23C503.39 387.17 526.36 379.03 549.66 380.8C554.01 381.13 556.94 381.43 558.45 381.71C569.69 383.75 585.06 387.69 602.59 413.3Z" fill="#6F7A94"/>
</g>
<defs>
<radialGradient id="paint0_radial_3_2" cx="0" cy="0" r="1" gradientUnits="userSpaceOnUse" gradientTransform="translate(328.42 375.79) scale(353.18)">
<stop offset="0.0572917" stop-color="#98A9B7"/>
<stop offset="0.375" stop-color="#213849"/>
</radialGradient>
<clipPath id="clip0_3_2">
<rect width="640" height="640" fill="white"/>
</clipPath>
</defs>
</svg>
